# xmcd CD database file
#
# Track frame offsets:
#	150
#	17562
#	31100
#	44511
#	60675
#	71585
#	85495
#	96706
#	111740
#	125359
#	139268
#
# Disc length: 2276 seconds
#
# Revision: 0
# Processed by: cddbd v1.5.1PL2 Copyright (c) Steve Scherf et al.
# Submitted via: CDex 1.51
#
DISCID=a308e20b
DTITLE=Maranata - Maranata 1
DYEAR=1978
DGENRE=Jazz
TTITLE0=Tema Sobre Campo
TTITLE1=Le Lis
TTITLE2=If you Leave me Now
TTITLE3=Primal Scream
TTITLE4=Son fof Father
TTITLE5=Bahia
TTITLE6=Eloísa
TTITLE7=El Ladron
TTITLE8=Angeles de Charlie
TTITLE9=Carly Carola
TTITLE10=Maranata
EXTD=YEAR: 1978
EXTT0=
EXTT1=
EXTT2=
EXTT3=
EXTT4=
EXTT5=
EXTT6=
EXTT7=
EXTT8=
EXTT9=
EXTT10=
PLAYORDER=
